<svg width="44" height="44" viewBox="0 0 44 44" fill="none" xmlns="http://www.w3.org/2000/svg">
<rect width="44" height="44" rx="8" fill="#BEDE18"/>
<path d="M35.7549 21.4172L27.3828 13.2415C27.0531 12.9195 26.519 12.9195 26.1893 13.2415L22.0044 17.3304L17.8195 13.2415C17.4898 12.9195 16.9513 12.9195 16.6216 13.2415L8.24727 21.4172C7.91758 21.7392 7.91758 22.2608 8.24727 22.5828L16.6194 30.7585C16.9491 31.0805 17.4876 31.0805 17.8173 30.7585L22.0022 26.6717L26.1871 30.7585C26.5168 31.0805 27.0509 31.0805 27.3806 30.7585L35.7527 22.5828C36.0824 22.2608 36.0824 21.7392 35.7527 21.4172H35.7549ZM26.1893 22.5828L22.4066 26.2768C22.1846 26.4936 21.822 26.4936 21.6 26.2768L17.8173 22.5828C17.4876 22.2608 17.4876 21.7392 17.8173 21.4172L21.6 17.7232C21.822 17.5064 22.1846 17.5064 22.4066 17.7232L26.1893 21.4172C26.519 21.7392 26.519 22.2608 26.1893 22.5828Z" fill="#1F1B34"/>
</svg>
